<?xml version="1.0" encoding="iso-8859-1"?>
<!-- Generator: Adobe Illustrator 19.0.0, SVG Export Plug-In . SVG Version: 6.00 Build 0)  -->
<svg version="1.1" id="Capa_1" xmlns="http://www.w3.org/2000/svg" xmlns:xlink="http://www.w3.org/1999/xlink" x="0px" y="0px"
	 viewBox="0 0 472 472" style="enable-background:new 0 0 472 472;" xml:space="preserve">
<path style="fill:#393856;" d="M148,336v-32c0-26.51,21.49-48,48-48h80c26.51,0,48,21.49,48,48v32h-32v-32c0-8.837-7.163-16-16-16
	h-80c-8.837,0-16,7.163-16,16v32H148z"/>
<g>
	<path style="fill:#A6ADB9;" d="M36,296h48v40H36V296z"/>
	<path style="fill:#A6ADB9;" d="M388,296h48v40h-48V296z"/>
</g>
<path style="fill:#6B778A;" d="M468,472V328H4v144"/>
<path style="fill:#F2CBA7;" d="M244,200l16,8c8.836,4.418,19.581,0.837,24-7.999c0,0,0-0.001,0-0.001
	c4.418-8.836,0.837-19.581-7.999-24c0,0-0.001,0-0.001,0l-64-32l80,40c8.836,4.418,19.581,0.837,24-7.999c0,0,0-0.001,0-0.001
	c4.418-8.836,0.837-19.581-7.999-24c0,0-0.001,0-0.001,0l-64-32l80,40c8.836,4.418,19.581,0.837,24-7.999c0,0,0-0.001,0-0.001
	c4.418-8.836,0.837-19.581-7.999-24c0,0-0.001,0-0.001,0l-64-32l80,40c8.836,4.418,19.581,0.837,24-7.999c0,0,0-0.001,0-0.001
	c16-24-8-40-8-40L244,16L196,0L84,32L44,16L28,120l24,8l112,40L244,200z"/>
<g>
	<path style="fill:#E1B494;" d="M197.36,54.048c3.957,5.928,11.29,8.621,18.144,6.664L260,48l112,56
		c8.836,4.418,12.418,15.163,8,23.999c0,0,0,0.001,0,0.001h56l-8-112l-40,16h-56L252,0l-49.688,31.056
		c-7.678,4.804-10.008,14.923-5.204,22.602C197.19,53.789,197.274,53.919,197.36,54.048z"/>
	<path style="fill:#E1B494;" d="M116.016,135.97l8-16c4.418-8.836,15.163-12.418,23.999-8l0,0c8.836,4.418,12.418,15.163,8,23.999
		l-8,16c-4.418,8.836-15.163,12.418-23.999,8l0,0C115.18,155.551,111.598,144.806,116.016,135.97z"/>
	<path style="fill:#E1B494;" d="M148.014,151.968l8-16c4.418-8.836,15.163-12.418,23.999-8l0,0c8.836,4.418,12.418,15.163,8,23.999
		l-8,16c-4.418,8.836-15.163,12.418-23.999,8l0,0C147.178,171.549,143.596,160.804,148.014,151.968z"/>
	<path style="fill:#E1B494;" d="M180.012,167.973l8-16c4.418-8.836,15.163-12.418,23.999-8l0,0c8.836,4.418,12.418,15.163,8,23.999
		l-8,16c-4.418,8.836-15.163,12.418-23.999,8l0,0C179.175,187.554,175.594,176.809,180.012,167.973z"/>
	<path style="fill:#E1B494;" d="M212.017,183.971l8-16c4.418-8.836,15.163-12.418,23.999-8l0,0c8.836,4.418,12.418,15.163,8,23.999
		l-8,16c-4.418,8.836-15.163,12.418-23.999,8l0,0C211.181,203.552,207.599,192.807,212.017,183.971z"/>
</g>
<g>
	<path style="fill:#393856;" d="M84,32L44,152l-40-8V0L84,32z"/>
	<path style="fill:#393856;" d="M468,144V0l-80,32l40,120L468,144z"/>
</g>
<g>
</g>
<g>
</g>
<g>
</g>
<g>
</g>
<g>
</g>
<g>
</g>
<g>
</g>
<g>
</g>
<g>
</g>
<g>
</g>
<g>
</g>
<g>
</g>
<g>
</g>
<g>
</g>
<g>
</g>
</svg>
