<?xml version="1.0" standalone="no"?>
<!DOCTYPE svg PUBLIC "-//W3C//DTD SVG 20010904//EN"
 "http://www.w3.org/TR/2001/REC-SVG-20010904/DTD/svg10.dtd">
<svg version="1.0" xmlns="http://www.w3.org/2000/svg"
 width="440.000000pt" height="171.000000pt" viewBox="0 0 440.000000 171.000000"
 preserveAspectRatio="xMidYMid meet">
<metadata>
Created by potrace 1.15, written by Peter Selinger 2001-2017
</metadata>
<g transform="translate(0.000000,171.000000) scale(0.100000,-0.100000)"
fill="#000000" stroke="none">
<path d="M505 1670 c-241 -36 -425 -172 -485 -359 -46 -144 -11 -282 95 -380
77 -69 144 -94 272 -99 128 -5 182 11 253 75 67 61 67 101 0 53 -99 -70 -284
-67 -402 6 -84 53 -128 161 -108 261 15 70 27 97 70 156 42 59 128 118 217
149 96 33 298 32 423 -1 82 -22 237 -78 276 -100 11 -6 69 -35 131 -65 l111
-54 -18 -28 c-527 -855 -548 -889 -694 -1127 -36 -59 -66 -112 -66 -117 0 -6
42 -10 98 -10 l97 1 44 72 c24 40 80 130 123 202 44 72 89 144 99 160 18 28
449 723 466 754 7 11 29 7 115 -22 119 -40 238 -67 295 -67 37 0 40 3 90 85
29 46 49 86 45 88 -4 2 -32 5 -62 6 -134 4 -334 62 -615 179 -263 109 -380
148 -534 176 -86 17 -248 19 -336 6z"/>
<path d="M2993 1626 c-10 -13 -67 -105 -128 -204 l-110 -181 -99 -3 -98 -3
-29 -52 -30 -53 91 0 c49 0 90 -2 90 -5 0 -3 -47 -81 -105 -173 -106 -170
-135 -202 -235 -261 -35 -20 -170 -74 -170 -67 0 2 13 33 30 69 50 112 52 209
4 266 -49 59 -124 56 -188 -8 -31 -32 -29 -54 4 -34 50 32 44 -65 -11 -184
-22 -47 -40 -70 -69 -88 -40 -25 -58 -61 -46 -91 7 -17 -84 -135 -152 -196
-52 -47 -81 -56 -99 -32 -44 60 36 277 170 458 110 148 265 276 335 276 27 0
36 15 17 30 -35 29 -170 -12 -287 -89 -272 -177 -492 -492 -462 -660 14 -78
63 -133 135 -152 42 -11 54 -10 112 9 108 35 205 101 342 233 60 57 78 69 125
79 50 11 177 68 208 93 31 25 18 -8 -38 -98 -86 -138 -92 -151 -92 -213 -1
-50 2 -59 31 -84 18 -17 43 -28 59 -28 107 0 271 105 496 319 34 31 56 47 52
36 -17 -45 -27 -131 -21 -173 10 -68 35 -110 82 -142 113 -74 276 -33 483 121
98 74 349 320 436 428 32 41 69 86 82 100 l23 26 -5 -25 c-4 -14 -20 -92 -37
-175 -51 -252 -72 -318 -122 -372 -33 -36 -85 -31 -127 12 -43 45 -80 46 -121
6 -58 -59 -28 -129 68 -162 47 -16 191 -18 224 -3 13 6 49 19 79 29 126 41
325 202 426 345 57 80 78 120 63 120 -7 0 -73 -60 -148 -133 -130 -127 -247
-224 -257 -214 -3 3 3 22 14 44 21 41 34 85 82 268 57 219 105 342 167 437 21
31 23 41 13 53 -48 58 -237 -60 -415 -261 -118 -134 -332 -342 -416 -406 -194
-148 -365 -197 -384 -110 -7 34 10 111 37 164 14 30 24 38 46 38 41 0 171 35
234 63 112 50 217 146 252 231 9 21 16 65 16 97 0 52 -3 61 -34 93 -31 33 -38
36 -92 36 -108 -1 -198 -33 -311 -112 -34 -24 -167 -147 -295 -274 -231 -228
-355 -337 -429 -374 -38 -20 -69 -18 -69 4 0 6 28 57 61 111 34 55 110 179
169 275 59 96 142 232 186 303 l79 127 100 0 100 0 28 49 c15 27 27 52 27 55
0 3 -43 6 -97 6 -90 0 -95 1 -81 18 8 9 33 49 57 87 23 39 60 99 83 135 57 92
98 160 98 165 0 3 -42 5 -94 5 -88 0 -96 -2 -113 -24z m497 -666 c0 -90 -98
-231 -210 -302 -45 -29 -147 -64 -157 -55 -10 11 122 191 199 272 105 111 168
143 168 85z"/>
</g>
</svg>
